<svg width="512" height="512" viewBox="0 0 512 512" fill="none" xmlns="http://www.w3.org/2000/svg">

<!-- Background -->
<rect width="512" height="512" rx="120" fill="#0F172A"/>

<!-- Grid -->
<g opacity="0.9">
    <rect x="120" y="140" width="60" height="60" rx="12" fill="#1E293B"/>
    <rect x="190" y="140" width="60" height="60" rx="12" fill="#1E293B"/>
    <rect x="260" y="140" width="60" height="60" rx="12" fill="#1E293B"/>
    <rect x="330" y="140" width="60" height="60" rx="12" fill="#1E293B"/>

    <rect x="120" y="210" width="60" height="60" rx="12" fill="#1E293B"/>
    <rect x="190" y="210" width="60" height="60" rx="12" fill="#3B82F6"/>
    <rect x="260" y="210" width="60" height="60" rx="12" fill="#1E293B"/>
    <rect x="330" y="210" width="60" height="60" rx="12" fill="#10B981"/>

    <rect x="120" y="280" width="60" height="60" rx="12" fill="#1E293B"/>
    <rect x="190" y="280" width="60" height="60" rx="12" fill="#1E293B"/>
    <rect x="260" y="280" width="60" height="60" rx="12" fill="#F59E0B"/>
    <rect x="330" y="280" width="60" height="60" rx="12" fill="#1E293B"/>
</g>

<!-- dots hint -->
<circle cx="190" cy="430" r="10" fill="#3B82F6"/>
<circle cx="240" cy="430" r="10" fill="#10B981"/>
<circle cx="290" cy="430" r="10" fill="#F59E0B"/>
<circle cx="340" cy="430" r="10" fill="#EF4444"/>

</svg>